<?xml version="1.0"?>
<svg xmlns="http://www.w3.org/2000/svg" xmlns:xlink="http://www.w3.org/1999/xlink" xmlns:svgjs="http://svgjs.com/svgjs" version="1.1" width="512" height="512" x="0" y="0" viewBox="0 0 512 512" style="enable-background:new 0 0 512 512" xml:space="preserve" class=""><g><g xmlns="http://www.w3.org/2000/svg"><path d="m405.433 192.298c-3.819-1.603-8.215.193-9.818 4.013l-47.908 114.154c-3.653 8.705 10.079 14.748 13.832 5.805l47.908-114.154c1.602-3.82-.195-8.215-4.014-9.818z" fill="#1da717" data-original="#000000" style="" class=""/><path d="m355.649 191.713c-11.436 0-20.739 10.266-20.739 22.884s9.304 22.884 20.739 22.884 20.739-10.266 20.739-22.884-9.303-22.884-20.739-22.884zm0 30.769c-3.111 0-5.739-3.61-5.739-7.884s2.628-7.884 5.739-7.884 5.739 3.61 5.739 7.884-2.627 7.884-5.739 7.884z" fill="#1da717" data-original="#000000" style="" class=""/><path d="m380.764 297.983c0 12.619 9.304 22.884 20.739 22.884s20.738-10.266 20.738-22.884-9.303-22.884-20.738-22.884-20.739 10.266-20.739 22.884zm26.477 0c0 4.274-2.628 7.884-5.738 7.884-3.111 0-5.739-3.61-5.739-7.884s2.628-7.884 5.739-7.884c3.11 0 5.738 3.61 5.738 7.884z" fill="#1da717" data-original="#000000" style="" class=""/><path d="m123.265 324.627c4.142 0 7.5-3.358 7.5-7.5v-121.673c0-4.142-3.358-7.5-7.5-7.5h-26.007c-4.142 0-7.5 3.358-7.5 7.5s3.358 7.5 7.5 7.5h18.506v114.173c.001 4.142 3.359 7.5 7.501 7.5z" fill="#1da717" data-original="#000000" style="" class=""/><path d="m146.785 228.156v56.269c0 23.537 19.148 42.685 42.685 42.685s42.685-19.148 42.685-42.685v-56.269c0-23.537-19.148-42.685-42.685-42.685s-42.685 19.149-42.685 42.685zm15 0c0-15.266 12.419-27.685 27.685-27.685s27.685 12.419 27.685 27.685v56.269c0 15.266-12.419 27.685-27.685 27.685s-27.685-12.419-27.685-27.685z" fill="#1da717" data-original="#000000" style="" class=""/><path d="m240.545 228.156v56.269c0 23.537 19.148 42.685 42.685 42.685s42.685-19.148 42.685-42.685v-56.269c0-23.537-19.148-42.685-42.685-42.685s-42.685 19.149-42.685 42.685zm70.369 0v56.269c0 15.266-12.419 27.685-27.685 27.685s-27.685-12.419-27.685-27.685v-56.269c0-15.266 12.419-27.685 27.685-27.685s27.685 12.42 27.685 27.685z" fill="#1da717" data-original="#000000" style="" class=""/><path d="m437.02 75.271c-48.353-48.352-112.64-74.98-181.02-74.98s-132.667 26.628-181.02 74.98c-48.351 48.352-74.98 112.64-74.98 181.02 0 65.351 24.624 127.565 69.335 175.182 44.504 47.396 104.63 75.885 169.301 80.22.17.011.34.017.509.017 3.914 0 7.21-3.037 7.476-6.999.277-4.133-2.849-7.708-6.982-7.985-60.872-4.08-117.47-30.901-159.369-75.521-42.09-44.825-65.27-103.392-65.27-164.914 0-64.374 25.068-124.894 70.587-170.413s106.039-70.587 170.413-70.587c64.373 0 124.894 25.068 170.412 70.587 45.52 45.519 70.588 106.039 70.588 170.413 0 60.516-22.522 118.375-63.419 162.919-40.646 44.271-95.859 71.639-155.467 77.061-4.125.375-7.165 4.023-6.789 8.148.374 4.125 4.014 7.161 8.148 6.79 63.329-5.76 121.982-34.83 165.156-81.854 43.445-47.319 67.371-108.781 67.371-173.064 0-68.38-26.629-132.667-74.98-181.02z" fill="#1da717" data-original="#000000" style="" class=""/><path d="m171.913 133.662c-5.314 7.77 6.665 16.826 12.381 8.468 3.766-5.506 7.947-10.53 12.433-15.029 3.14 6.329 7.767 11.912 14.08 15.908 8.194 5.187 16.217-7.487 8.023-12.674-4.872-3.084-8.217-7.923-10.187-13.435 17.669-12.803 38.162-18.27 56.682-14.062 9.455 2.159 12.78-12.478 3.324-14.627-21.314-4.844-43.606.685-61.988 11.926.453-4.81 1.913-9.166 4.025-13.445 11.55-22.121 40.511-27.703 61.862-20.314 25.285 8.773 41.751 30.798 49.845 55.614-20.596-6.331-43.383 3.733-61.06 11.542-11.449 5.371-4.106 16.82 6.062 13.721 20.934-9.249 44.66-19.732 61.493-4.618 5.192 4.66 13.617-.036 12.393-6.909-3.352-18.618-10.315-35.91-20.139-50.004-11.398-16.353-26.528-27.951-43.759-33.544-14.533-5.013-30.504-5.297-44.982-.8-15.582 4.841-28.03 14.945-35.054 28.452-4.942 9.617-6.741 20.348-5.378 31.127-7.43 6.496-14.184 14.117-20.056 22.703z" fill="#1da717" data-original="#000000" style="" class=""/><path d="m223.216 455.285c30.018 15.469 73.508 10.466 90.66-21.513 5.699-10.625 7.876-21.809 6.475-32.434 7.302-6.435 13.949-13.956 19.737-22.418 5.476-8.004-6.903-16.469-12.381-8.469-3.763 5.501-7.94 10.521-12.422 15.016-5.748-10.787-15.597-18.839-28.2-22.917-20.439-6.615-38.282.705-54.023 7.163-18.498 7.59-33.108 13.584-50.295-.062-5.357-4.253-13.355.63-12.019 7.338 5.186 26.057 18.499 60.791 52.468 78.296zm15.539-71.695c14.656-6.012 28.499-11.69 43.712-6.769 9.978 3.229 17.431 9.87 20.985 18.7.009.022.016.045.025.068-17.698 12.866-38.242 18.37-56.802 14.153-9.455-2.15-12.781 12.478-3.324 14.627 21.343 4.85 43.673-.703 62.071-11.978-.735 5.046-2.323 9.809-4.766 14.29-12.979 24.198-46.968 27.432-70.57 15.269-22.149-11.414-34.007-32.108-40.347-51.456 17.738 5.927 34.141-.801 49.016-6.904z" fill="#1da717" data-original="#000000" style="" class=""/></g></g></svg>
