<?xml version="1.0"?>
<svg xmlns="http://www.w3.org/2000/svg" xmlns:xlink="http://www.w3.org/1999/xlink" xmlns:svgjs="http://svgjs.com/svgjs" version="1.1" width="512" height="512" x="0" y="0" viewBox="0 0 128 128" style="enable-background:new 0 0 512 512" xml:space="preserve" class=""><g><g xmlns="http://www.w3.org/2000/svg"><g><path d="m48.311 66.087a9.148 9.148 0 0 1 -3.825 12.635c.747 5.667-1.867 7.927-5.633 8.144-6.069 8.34-12.5 5.582-12.5 5.582s-6.94.907-10.508-8.766c-3.574-1.233-5.468-4.116-3.218-9.369a9.141 9.141 0 0 1 -.242-13.2c-3.265-1.853-4.822-9.084 1.255-11.979-.321-4.454 1.185-10.7 8.265-9.72-.431-4.765 3.987-13.174 13.428-11.867s11.409 10.6 9.7 15.068c7.08.98 6.833 7.4 5.322 11.6 5.062 4.437 1.6 10.973-2.044 11.872z" fill="#1da717" data-original="#9adb07" style=""/><path d="m80.4 114.754 2.062-21.743c.6-9.393-1.967-15.855-7.248-21.327l9.425-.407a34 34 0 0 1 5.3 18.6 34 34 0 0 1 7.606-17.777l9.3 1.6c-5.931 4.76-9.292 10.845-9.89 20.238l-.707 21.828z" fill="#88b708" data-original="#88b708" style=""/><path d="m121.478 55.05a10.608 10.608 0 0 0 -6.693-10.538 10.6 10.6 0 0 0 -9.714-9.549 11.617 11.617 0 0 0 -21.493-1.363 10.6 10.6 0 0 0 -10.845 8.242 10.6 10.6 0 0 0 -5.316 17.323 11.61 11.61 0 0 0 17.307 13.925 11.574 11.574 0 0 0 14.208.9 11.611 11.611 0 0 0 18.932-11.625 10.571 10.571 0 0 0 3.614-7.315z" fill="#1da717" data-original="#9adb07" style=""/><g><ellipse cx="64.555" cy="28.198" fill="#88b708" rx="12.53" ry="4.536" transform="matrix(.371 -.929 .929 .371 14.405 77.67)" data-original="#88b708" style=""/><ellipse cx="52.897" cy="28.198" fill="#88b708" rx="4.536" ry="12.53" transform="matrix(.929 -.371 .371 .929 -6.688 21.654)" data-original="#88b708" style=""/><ellipse cx="58.726" cy="23.096" fill="#1da717" rx="4.536" ry="16.596" data-original="#9adb07" style=""/><path d="m76.47 42.64-.03.14-.67 3.46-4.85 25.04-.67 3.43-5.41 27.89a6.242 6.242 0 0 1 -7.07 4.97 6.369 6.369 0 0 1 -5.19-5.16l-6.72-34.6-.66-3.45-2.66-13.66-.67-3.46-.89-4.6a7.7 7.7 0 0 1 5.63-8.92 48.463 48.463 0 0 1 24.24 0 7.706 7.706 0 0 1 5.62 8.92z" fill="#fc6243" data-original="#fc6243" style="" class=""/></g><path d="m6.5 83.67h115v37.83h-115z" fill="#fce277" data-original="#fce277" style="" class=""/></g><g fill="#1b1e40"><path d="m113.976 65.759a1.75 1.75 0 0 0 -1.635-1.858 1.729 1.729 0 0 0 -1.858 1.635 3.874 3.874 0 0 1 -3.854 3.626 1.75 1.75 0 1 0 0 3.5 7.381 7.381 0 0 0 7.347-6.903z" fill="#1b1e40" data-original="#1b1e40" style="" class=""/><path d="m57.881 58.937h8.447a1.75 1.75 0 0 0 0-3.5h-8.447a1.75 1.75 0 0 0 0 3.5z" fill="#1b1e40" data-original="#1b1e40" style="" class=""/><path d="m59.188 75.781h-4.6a1.75 1.75 0 0 0 0 3.5h4.6a1.75 1.75 0 0 0 0-3.5z" fill="#1b1e40" data-original="#1b1e40" style="" class=""/><path d="m121.5 81.917h-19.51a21.854 21.854 0 0 1 2.427-3.443c.445.073.894.133 1.35.162.289.018.577.028.862.028a13.394 13.394 0 0 0 13.337-12.523 13.194 13.194 0 0 0 -.184-3.186 12.346 12.346 0 0 0 -3.4-19.647 12.317 12.317 0 0 0 -10.049-9.953 13.31 13.31 0 0 0 -11.44-8.061 1.75 1.75 0 0 0 -.222 3.492 9.834 9.834 0 0 1 8.741 6.728 1.748 1.748 0 0 0 1.523 1.19 8.826 8.826 0 0 1 8.105 7.972 1.752 1.752 0 0 0 1.1 1.461 8.85 8.85 0 0 1 2.573 14.915 1.75 1.75 0 0 0 -.54 1.77 9.611 9.611 0 0 1 .3 3.1 9.859 9.859 0 0 1 -16.386 6.76 1.748 1.748 0 0 0 -2.141-.135 9.8 9.8 0 0 1 -12.069-.766 1.748 1.748 0 0 0 -2.142-.134 9.824 9.824 0 0 1 -11.106-.021l5.559-28.65a9.417 9.417 0 0 0 -.676-5.672 8.763 8.763 0 0 1 5.981-1.952 1.783 1.783 0 0 0 1.663-.991 9.849 9.849 0 0 1 2.327-3.088 1.75 1.75 0 0 0 -2.331-2.612 13.336 13.336 0 0 0 -2.62 3.191 12.323 12.323 0 0 0 -7.023 2.58 9.363 9.363 0 0 0 -4.221-2.4c-.461-.119-.931-.207-1.4-.313.174-.4.348-.793.5-1.182 2.555-6.383 3.479-13.985-.54-15.6-1.589-.632-3.38-.065-5.219 1.592-.565-4.9-2.047-11.775-5.906-11.775s-5.35 6.882-5.916 11.776c-1.838-1.655-3.626-2.221-5.213-1.591-1.317.526-2.858 2.044-2.718 6.285a28.774 28.774 0 0 0 2.179 9.3c.155.394.33.791.505 1.189-.463.106-.93.194-1.389.312-.241.062-.47.155-.7.235a13.011 13.011 0 0 0 -9.9-6.442 13.988 13.988 0 0 0 -6.465.534 1.75 1.75 0 0 0 1.121 3.316 10.519 10.519 0 0 1 4.864-.383 9.452 9.452 0 0 1 7.339 4.708 9.413 9.413 0 0 0 -3.33 6.943 8.785 8.785 0 0 0 .161 2.037l1.358 7h-.008a61.966 61.966 0 0 0 -7.246 4.587l1.5-10.814a1.749 1.749 0 1 0 -3.466-.478l-1.499 10.819a62.075 62.075 0 0 0 -5.733-6.387 1.75 1.75 0 0 0 -2.435 2.514 56.967 56.967 0 0 1 7.473 8.878l-.669 4.833a61.951 61.951 0 0 0 -5.73-6.386 1.75 1.75 0 0 0 -2.435 2.514 56.961 56.961 0 0 1 7.473 8.876l-.67 4.834a62.058 62.058 0 0 0 -5.73-6.385 1.75 1.75 0 0 0 -2.435 2.514 56.922 56.922 0 0 1 7.473 8.875l-.437 3.151h-9.894a4.122 4.122 0 0 1 -2.457-2.028c-.521-1.182-.338-2.827.544-4.892a1.747 1.747 0 0 0 -.395-1.947 7.4 7.4 0 0 1 -.192-10.738 1.75 1.75 0 0 0 -.408-2.723 5.1 5.1 0 0 1 -1.984-4.39 5 5 0 0 1 3.134-4.492 1.751 1.751 0 0 0 .992-1.7c-.214-2.973.489-5.525 1.879-6.826a5.062 5.062 0 0 1 4.395-1.035 1.751 1.751 0 0 0 1.983-1.891 9.274 9.274 0 0 1 1.323-5.12 1.75 1.75 0 1 0 -3.041-1.736 13.734 13.734 0 0 0 -1.736 5.163 7.882 7.882 0 0 0 -5.315 2.061c-2.6 2.437-3.033 6.2-3.022 8.493a8.406 8.406 0 0 0 -4.09 6.959 9.111 9.111 0 0 0 2.18 6.269 10.813 10.813 0 0 0 .659 13.355 8.862 8.862 0 0 0 -.107 6.6 6.475 6.475 0 0 0 .315.615h-4.308a1.75 1.75 0 0 0 -1.75 1.75v37.835a1.75 1.75 0 0 0 1.75 1.75h115a1.75 1.75 0 0 0 1.75-1.75v-37.833a1.75 1.75 0 0 0 -1.75-1.75zm-22.7-5.794a13.411 13.411 0 0 0 2.03 1.208 24.911 24.911 0 0 0 -2.767 4.586h-4.32a34.157 34.157 0 0 1 2.294-4.662 13.353 13.353 0 0 0 2.757-1.132zm-7 1.62c-.462.919-.89 1.853-1.273 2.807-.29-1.112-.614-2.146-.951-3.092a13.373 13.373 0 0 0 1.986.278c.076.005.155.004.238.007zm-7.212-2.52c.128.093.262.176.393.265a33.869 33.869 0 0 1 2.278 6.429h-4.059a24.985 24.985 0 0 0 -2.191-5.36 13.222 13.222 0 0 0 3.575-1.334zm-7.538 1.571a21.643 21.643 0 0 1 2.5 5.123h-8.918l1.287-6.638a13.183 13.183 0 0 0 5.127 1.515zm-8.5-58.615c.711.479 1.093 4.818-1.406 11.059-.232.588-.5 1.189-.787 1.8-.615-.094-1.23-.186-1.849-.257a56.755 56.755 0 0 0 .5-7.682c0-.55-.015-1.089-.03-1.627 1.854-2.629 3.268-3.353 3.569-3.293zm-9.82-9.835c.888.87 2.47 5.156 2.741 12.656.029.686.038 1.392.038 2.1a52.511 52.511 0 0 1 -.5 7.409q-2.28-.1-4.562 0a52.65 52.65 0 0 1 -.5-7.409c0-.705.01-1.411.039-2.108.259-7.501 1.847-11.783 2.741-12.648zm-8.417 20.885c-2.5-6.248-2.119-10.577-1.429-11.04.316-.056 1.735.66 3.585 3.285-.015.539-.03 1.079-.03 1.626a56.771 56.771 0 0 0 .5 7.683c-.615.07-1.227.162-1.839.256-.283-.612-.551-1.214-.787-1.81zm20.1 6.184a5.966 5.966 0 0 1 4.342 6.894l-.083.432h-8.13a1.75 1.75 0 0 0 0 3.5h7.447l-4.845 24.973h-4.431a1.75 1.75 0 1 0 0 3.5h3.752l-1.4 7.2h-16.683l-2.737-14.101h6.428a1.75 1.75 0 1 0 0-3.5h-7.107l-2.64-13.611h5.322a1.75 1.75 0 0 0 0-3.5h-6l-.948-4.9a5.411 5.411 0 0 1 -.1-1.265 5.924 5.924 0 0 1 2.94-4.995 5.641 5.641 0 0 1 1.508-.626 46.909 46.909 0 0 1 23.361-.001zm-24.078 44.235c.013-.008.023-.019.036-.028l.445 2.3h-.546a12.659 12.659 0 0 0 .065-2.272zm-16.386-.4a57 57 0 0 1 9.6-6.512 1.75 1.75 0 1 0 -1.661-3.08 61.97 61.97 0 0 0 -7.247 4.589l.67-4.836a56.938 56.938 0 0 1 9.6-6.51 1.75 1.75 0 1 0 -1.661-3.081 62.112 62.112 0 0 0 -7.25 4.582l.67-4.837a56.544 56.544 0 0 1 8.647-5.981l4.294 22.137a8.129 8.129 0 0 1 -1.953 1.458 1.747 1.747 0 0 0 -.907 1.765 9.648 9.648 0 0 1 -.019 2.973h-13.153zm89.8 6.173v9.11h-111.5v-9.11zm-111.5 34.329v-9.111h83a1.75 1.75 0 0 0 0-3.5h-83v-9.112h111.5v9.112h-8a1.75 1.75 0 0 0 0 3.5h8v9.111z" fill="#1b1e40" data-original="#1b1e40" style="" class=""/><path d="m104.75 107.139h-5.581a1.75 1.75 0 0 0 0 3.5h5.581a1.75 1.75 0 0 0 0-3.5z" fill="#1b1e40" data-original="#1b1e40" style="" class=""/></g></g></g></svg>
